<mxfile host="Electron" agent="Mozilla/5.0 (Windows NT 10.0; Win64; x64) AppleWebKit/537.36 (KHTML, like Gecko) draw.io/24.7.17 Chrome/128.0.6613.36 Electron/32.0.1 Safari/537.36" version="24.7.17">
  <diagram name="Page-1" id="2c0d36ab-eaac-3732-788b-9136903baeff">
    <mxGraphModel dx="2106" dy="1314" grid="1" gridSize="10" guides="1" tooltips="1" connect="1" arrows="1" fold="1" page="1" pageScale="3" pageWidth="1169" pageHeight="827" background="none" math="0" shadow="0">
      <root>
        <mxCell id="0" />
        <mxCell id="1" parent="0" />
        <mxCell id="uPcwpQi_YDaR7jfEbehS-126" value="" style="fillColor=#AE4132;strokeColor=none;opacity=30;" vertex="1" parent="1">
          <mxGeometry x="1610" y="650" width="215" height="100" as="geometry" />
        </mxCell>
        <mxCell id="gYmUgzwrYWTiWLQqNIOj-176" value="" style="fillColor=#AE4132;strokeColor=none;opacity=30;" parent="1" vertex="1">
          <mxGeometry x="2130" y="290" width="210" height="99.99999999999994" as="geometry" />
        </mxCell>
        <mxCell id="gYmUgzwrYWTiWLQqNIOj-145" value="" style="fillColor=#AE4132;strokeColor=none;opacity=30;" parent="1" vertex="1">
          <mxGeometry x="1610" y="414.5" width="210" height="99.99999999999994" as="geometry" />
        </mxCell>
        <mxCell id="gYmUgzwrYWTiWLQqNIOj-125" value="" style="fillColor=#AE4132;strokeColor=none;opacity=30;" parent="1" vertex="1">
          <mxGeometry x="1610" y="288.5" width="210" height="99.99999999999994" as="geometry" />
        </mxCell>
        <mxCell id="gYmUgzwrYWTiWLQqNIOj-150" style="edgeStyle=orthogonalEdgeStyle;rounded=0;orthogonalLoop=1;jettySize=auto;html=1;exitX=1;exitY=0.5;exitDx=0;exitDy=0;entryX=1;entryY=0.5;entryDx=0;entryDy=0;strokeWidth=2;strokeColor=#ff0000;" parent="1" source="123" target="gYmUgzwrYWTiWLQqNIOj-125" edge="1">
          <mxGeometry relative="1" as="geometry" />
        </mxCell>
        <mxCell id="gYmUgzwrYWTiWLQqNIOj-162" value="START" style="edgeLabel;html=1;align=center;verticalAlign=middle;resizable=0;points=[];fontColor=#FF0000;" parent="gYmUgzwrYWTiWLQqNIOj-150" vertex="1" connectable="0">
          <mxGeometry x="-0.8975" y="1" relative="1" as="geometry">
            <mxPoint x="25" y="1" as="offset" />
          </mxGeometry>
        </mxCell>
        <mxCell id="gYmUgzwrYWTiWLQqNIOj-178" style="edgeStyle=orthogonalEdgeStyle;rounded=0;orthogonalLoop=1;jettySize=auto;html=1;exitX=0.75;exitY=0;exitDx=0;exitDy=0;strokeWidth=2;strokeColor=#FF0000;entryX=1;entryY=0.5;entryDx=0;entryDy=0;" parent="1" source="123" target="uPcwpQi_YDaR7jfEbehS-126" edge="1">
          <mxGeometry relative="1" as="geometry">
            <Array as="points">
              <mxPoint x="1615" y="130" />
              <mxPoint x="1850" y="130" />
              <mxPoint x="1850" y="700" />
            </Array>
            <mxPoint x="1830" y="700" as="targetPoint" />
          </mxGeometry>
        </mxCell>
        <mxCell id="uPcwpQi_YDaR7jfEbehS-133" value="4" style="edgeLabel;html=1;align=center;verticalAlign=middle;resizable=0;points=[];fontSize=16;fontColor=#FF0000;" vertex="1" connectable="0" parent="gYmUgzwrYWTiWLQqNIOj-178">
          <mxGeometry x="-0.3993" y="1" relative="1" as="geometry">
            <mxPoint x="-141" y="-8" as="offset" />
          </mxGeometry>
        </mxCell>
        <mxCell id="uPcwpQi_YDaR7jfEbehS-130" style="edgeStyle=orthogonalEdgeStyle;rounded=0;orthogonalLoop=1;jettySize=auto;html=1;exitX=1;exitY=0.25;exitDx=0;exitDy=0;entryX=0.25;entryY=0;entryDx=0;entryDy=0;strokeWidth=2;strokeColor=#FF3333;" edge="1" parent="1" source="123" target="gYmUgzwrYWTiWLQqNIOj-176">
          <mxGeometry relative="1" as="geometry" />
        </mxCell>
        <mxCell id="uPcwpQi_YDaR7jfEbehS-135" value="6" style="edgeLabel;html=1;align=center;verticalAlign=middle;resizable=0;points=[];fontColor=#FF0000;fontSize=17;" vertex="1" connectable="0" parent="uPcwpQi_YDaR7jfEbehS-130">
          <mxGeometry x="0.1226" y="4" relative="1" as="geometry">
            <mxPoint x="-297" as="offset" />
          </mxGeometry>
        </mxCell>
        <mxCell id="123" value="" style="fillColor=#AE4132;strokeColor=none;opacity=30;" parent="1" vertex="1">
          <mxGeometry x="1457" y="140.00000000000003" width="210" height="99.99999999999994" as="geometry" />
        </mxCell>
        <mxCell id="rWoH44fEGsMXWXKyqr3U-135" style="edgeStyle=orthogonalEdgeStyle;rounded=0;orthogonalLoop=1;jettySize=auto;html=1;entryX=0.5;entryY=0;entryDx=0;entryDy=0;" parent="1" source="2" target="rWoH44fEGsMXWXKyqr3U-124" edge="1">
          <mxGeometry relative="1" as="geometry" />
        </mxCell>
        <mxCell id="rWoH44fEGsMXWXKyqr3U-209" style="edgeStyle=orthogonalEdgeStyle;rounded=0;orthogonalLoop=1;jettySize=auto;html=1;exitX=0.5;exitY=1;exitDx=0;exitDy=0;" parent="1" source="2" target="rWoH44fEGsMXWXKyqr3U-208" edge="1">
          <mxGeometry relative="1" as="geometry" />
        </mxCell>
        <mxCell id="rWoH44fEGsMXWXKyqr3U-210" style="edgeStyle=orthogonalEdgeStyle;rounded=0;orthogonalLoop=1;jettySize=auto;html=1;exitX=0.5;exitY=1;exitDx=0;exitDy=0;" parent="1" source="2" target="rWoH44fEGsMXWXKyqr3U-185" edge="1">
          <mxGeometry relative="1" as="geometry" />
        </mxCell>
        <mxCell id="rWoH44fEGsMXWXKyqr3U-211" style="edgeStyle=orthogonalEdgeStyle;rounded=0;orthogonalLoop=1;jettySize=auto;html=1;exitX=0.5;exitY=1;exitDx=0;exitDy=0;" parent="1" source="2" target="12" edge="1">
          <mxGeometry relative="1" as="geometry" />
        </mxCell>
        <mxCell id="rWoH44fEGsMXWXKyqr3U-212" style="edgeStyle=orthogonalEdgeStyle;rounded=0;orthogonalLoop=1;jettySize=auto;html=1;exitX=0.5;exitY=1;exitDx=0;exitDy=0;" parent="1" source="2" target="13" edge="1">
          <mxGeometry relative="1" as="geometry" />
        </mxCell>
        <mxCell id="rWoH44fEGsMXWXKyqr3U-250" style="edgeStyle=orthogonalEdgeStyle;rounded=0;orthogonalLoop=1;jettySize=auto;html=1;exitX=0.5;exitY=1;exitDx=0;exitDy=0;entryX=0.5;entryY=0;entryDx=0;entryDy=0;" parent="1" source="2" target="rWoH44fEGsMXWXKyqr3U-227" edge="1">
          <mxGeometry relative="1" as="geometry" />
        </mxCell>
        <mxCell id="gYmUgzwrYWTiWLQqNIOj-126" style="edgeStyle=orthogonalEdgeStyle;rounded=0;orthogonalLoop=1;jettySize=auto;html=1;exitX=0.5;exitY=1;exitDx=0;exitDy=0;" parent="1" source="2" target="10" edge="1">
          <mxGeometry relative="1" as="geometry" />
        </mxCell>
        <mxCell id="gYmUgzwrYWTiWLQqNIOj-174" style="edgeStyle=orthogonalEdgeStyle;rounded=0;orthogonalLoop=1;jettySize=auto;html=1;exitX=0.5;exitY=1;exitDx=0;exitDy=0;" parent="1" source="2" target="gYmUgzwrYWTiWLQqNIOj-173" edge="1">
          <mxGeometry relative="1" as="geometry" />
        </mxCell>
        <mxCell id="2" value="Homepage" style="rounded=1;fillColor=#23445D;gradientColor=none;strokeColor=none;fontColor=#FFFFFF;fontStyle=1;fontFamily=Tahoma;fontSize=14" parent="1" vertex="1">
          <mxGeometry x="1467" y="150" width="190" height="80" as="geometry" />
        </mxCell>
        <mxCell id="gYmUgzwrYWTiWLQqNIOj-130" style="edgeStyle=orthogonalEdgeStyle;rounded=0;orthogonalLoop=1;jettySize=auto;html=1;exitX=0.5;exitY=1;exitDx=0;exitDy=0;entryX=0.5;entryY=0;entryDx=0;entryDy=0;" parent="1" source="10" target="gYmUgzwrYWTiWLQqNIOj-127" edge="1">
          <mxGeometry relative="1" as="geometry" />
        </mxCell>
        <mxCell id="gYmUgzwrYWTiWLQqNIOj-131" style="edgeStyle=orthogonalEdgeStyle;rounded=0;orthogonalLoop=1;jettySize=auto;html=1;exitX=0.5;exitY=1;exitDx=0;exitDy=0;entryX=0.5;entryY=0;entryDx=0;entryDy=0;" parent="1" source="10" target="gYmUgzwrYWTiWLQqNIOj-129" edge="1">
          <mxGeometry relative="1" as="geometry" />
        </mxCell>
        <mxCell id="10" value="Account" style="rounded=1;fillColor=#23445D;gradientColor=none;strokeColor=none;fontColor=#FFFFFF;fontStyle=1;fontFamily=Tahoma;fontSize=14" parent="1" vertex="1">
          <mxGeometry x="1620" y="300" width="190" height="80" as="geometry" />
        </mxCell>
        <mxCell id="rWoH44fEGsMXWXKyqr3U-153" style="edgeStyle=orthogonalEdgeStyle;rounded=0;orthogonalLoop=1;jettySize=auto;html=1;exitX=0;exitY=0.5;exitDx=0;exitDy=0;entryX=0;entryY=0.5;entryDx=0;entryDy=0;" parent="1" source="12" target="rWoH44fEGsMXWXKyqr3U-152" edge="1">
          <mxGeometry relative="1" as="geometry" />
        </mxCell>
        <mxCell id="gYmUgzwrYWTiWLQqNIOj-139" style="edgeStyle=orthogonalEdgeStyle;rounded=0;orthogonalLoop=1;jettySize=auto;html=1;exitX=0;exitY=0.5;exitDx=0;exitDy=0;entryX=0;entryY=0.5;entryDx=0;entryDy=0;" parent="1" source="12" target="rWoH44fEGsMXWXKyqr3U-149" edge="1">
          <mxGeometry relative="1" as="geometry" />
        </mxCell>
        <mxCell id="gYmUgzwrYWTiWLQqNIOj-140" style="edgeStyle=orthogonalEdgeStyle;rounded=0;orthogonalLoop=1;jettySize=auto;html=1;exitX=0;exitY=0.5;exitDx=0;exitDy=0;entryX=0;entryY=0.5;entryDx=0;entryDy=0;" parent="1" source="12" target="rWoH44fEGsMXWXKyqr3U-150" edge="1">
          <mxGeometry relative="1" as="geometry" />
        </mxCell>
        <mxCell id="gYmUgzwrYWTiWLQqNIOj-141" style="edgeStyle=orthogonalEdgeStyle;rounded=0;orthogonalLoop=1;jettySize=auto;html=1;exitX=0;exitY=0.5;exitDx=0;exitDy=0;entryX=0;entryY=0.5;entryDx=0;entryDy=0;" parent="1" source="12" target="rWoH44fEGsMXWXKyqr3U-151" edge="1">
          <mxGeometry relative="1" as="geometry" />
        </mxCell>
        <mxCell id="12" value="Rent" style="rounded=1;fillColor=#23445D;gradientColor=none;strokeColor=none;fontColor=#FFFFFF;fontStyle=1;fontFamily=Tahoma;fontSize=14" parent="1" vertex="1">
          <mxGeometry x="1090" y="300" width="190" height="80" as="geometry" />
        </mxCell>
        <mxCell id="rWoH44fEGsMXWXKyqr3U-224" style="edgeStyle=orthogonalEdgeStyle;rounded=0;orthogonalLoop=1;jettySize=auto;html=1;exitX=0;exitY=0.5;exitDx=0;exitDy=0;entryX=0;entryY=0.5;entryDx=0;entryDy=0;" parent="1" source="13" target="rWoH44fEGsMXWXKyqr3U-133" edge="1">
          <mxGeometry relative="1" as="geometry" />
        </mxCell>
        <mxCell id="13" value="About Us" style="rounded=1;fillColor=#23445D;gradientColor=none;strokeColor=none;fontColor=#FFFFFF;fontStyle=1;fontFamily=Tahoma;fontSize=14" parent="1" vertex="1">
          <mxGeometry x="817" y="300" width="190" height="80" as="geometry" />
        </mxCell>
        <mxCell id="rWoH44fEGsMXWXKyqr3U-166" style="edgeStyle=orthogonalEdgeStyle;rounded=0;orthogonalLoop=1;jettySize=auto;html=1;exitX=0;exitY=0.5;exitDx=0;exitDy=0;entryX=0;entryY=0.5;entryDx=0;entryDy=0;" parent="1" source="rWoH44fEGsMXWXKyqr3U-124" target="rWoH44fEGsMXWXKyqr3U-165" edge="1">
          <mxGeometry relative="1" as="geometry" />
        </mxCell>
        <mxCell id="gYmUgzwrYWTiWLQqNIOj-133" style="edgeStyle=orthogonalEdgeStyle;rounded=0;orthogonalLoop=1;jettySize=auto;html=1;exitX=0;exitY=0.5;exitDx=0;exitDy=0;entryX=0;entryY=0.5;entryDx=0;entryDy=0;" parent="1" source="rWoH44fEGsMXWXKyqr3U-124" target="rWoH44fEGsMXWXKyqr3U-160" edge="1">
          <mxGeometry relative="1" as="geometry" />
        </mxCell>
        <mxCell id="gYmUgzwrYWTiWLQqNIOj-134" style="edgeStyle=orthogonalEdgeStyle;rounded=0;orthogonalLoop=1;jettySize=auto;html=1;exitX=0;exitY=0.5;exitDx=0;exitDy=0;entryX=0;entryY=0.5;entryDx=0;entryDy=0;" parent="1" source="rWoH44fEGsMXWXKyqr3U-124" target="rWoH44fEGsMXWXKyqr3U-162" edge="1">
          <mxGeometry relative="1" as="geometry" />
        </mxCell>
        <mxCell id="gYmUgzwrYWTiWLQqNIOj-135" style="edgeStyle=orthogonalEdgeStyle;rounded=0;orthogonalLoop=1;jettySize=auto;html=1;exitX=0;exitY=0.5;exitDx=0;exitDy=0;entryX=0;entryY=0.5;entryDx=0;entryDy=0;" parent="1" source="rWoH44fEGsMXWXKyqr3U-124" target="rWoH44fEGsMXWXKyqr3U-164" edge="1">
          <mxGeometry relative="1" as="geometry" />
        </mxCell>
        <mxCell id="rWoH44fEGsMXWXKyqr3U-124" value="Buy" style="rounded=1;fillColor=#23445D;gradientColor=none;strokeColor=none;fontColor=#FFFFFF;fontStyle=1;fontFamily=Tahoma;fontSize=14" parent="1" vertex="1">
          <mxGeometry x="1380" y="300" width="190" height="80" as="geometry" />
        </mxCell>
        <mxCell id="rWoH44fEGsMXWXKyqr3U-133" value="Our History" style="rounded=1;fillColor=#23445D;gradientColor=none;strokeColor=none;fontColor=#FFFFFF;fontStyle=1;fontFamily=Tahoma;fontSize=14" parent="1" vertex="1">
          <mxGeometry x="816.9999999999999" y="414.5" width="190" height="80" as="geometry" />
        </mxCell>
        <mxCell id="rWoH44fEGsMXWXKyqr3U-149" value="Apartment" style="rounded=1;fillColor=#23445D;gradientColor=none;strokeColor=none;fontColor=#FFFFFF;fontStyle=1;fontFamily=Tahoma;fontSize=14" parent="1" vertex="1">
          <mxGeometry x="1090" y="414.5" width="190" height="80" as="geometry" />
        </mxCell>
        <mxCell id="rWoH44fEGsMXWXKyqr3U-150" value="Townhouse" style="rounded=1;fillColor=#23445D;gradientColor=none;strokeColor=none;fontColor=#FFFFFF;fontStyle=1;fontFamily=Tahoma;fontSize=14" parent="1" vertex="1">
          <mxGeometry x="1090" y="524.5" width="190" height="80" as="geometry" />
        </mxCell>
        <mxCell id="rWoH44fEGsMXWXKyqr3U-151" value="Single House" style="rounded=1;fillColor=#23445D;gradientColor=none;strokeColor=none;fontColor=#FFFFFF;fontStyle=1;fontFamily=Tahoma;fontSize=14" parent="1" vertex="1">
          <mxGeometry x="1090" y="634.5" width="190" height="80" as="geometry" />
        </mxCell>
        <mxCell id="rWoH44fEGsMXWXKyqr3U-152" value="Condos" style="rounded=1;fillColor=#23445D;gradientColor=none;strokeColor=none;fontColor=#FFFFFF;fontStyle=1;fontFamily=Tahoma;fontSize=14" parent="1" vertex="1">
          <mxGeometry x="1090" y="744.5" width="190" height="80" as="geometry" />
        </mxCell>
        <mxCell id="rWoH44fEGsMXWXKyqr3U-160" value="Apartment" style="rounded=1;fillColor=#23445D;gradientColor=none;strokeColor=none;fontColor=#FFFFFF;fontStyle=1;fontFamily=Tahoma;fontSize=14" parent="1" vertex="1">
          <mxGeometry x="1380" y="414.5" width="190" height="80" as="geometry" />
        </mxCell>
        <mxCell id="rWoH44fEGsMXWXKyqr3U-162" value="Townhouse" style="rounded=1;fillColor=#23445D;gradientColor=none;strokeColor=none;fontColor=#FFFFFF;fontStyle=1;fontFamily=Tahoma;fontSize=14" parent="1" vertex="1">
          <mxGeometry x="1380" y="524.5" width="190" height="80" as="geometry" />
        </mxCell>
        <mxCell id="rWoH44fEGsMXWXKyqr3U-164" value="Single House" style="rounded=1;fillColor=#23445D;gradientColor=none;strokeColor=none;fontColor=#FFFFFF;fontStyle=1;fontFamily=Tahoma;fontSize=14" parent="1" vertex="1">
          <mxGeometry x="1380" y="634.5" width="190" height="80" as="geometry" />
        </mxCell>
        <mxCell id="rWoH44fEGsMXWXKyqr3U-165" value="Condos" style="rounded=1;fillColor=#23445D;gradientColor=none;strokeColor=none;fontColor=#FFFFFF;fontStyle=1;fontFamily=Tahoma;fontSize=14" parent="1" vertex="1">
          <mxGeometry x="1380" y="744.5" width="190" height="80" as="geometry" />
        </mxCell>
        <mxCell id="rWoH44fEGsMXWXKyqr3U-175" value="On Campus" style="rounded=1;fillColor=#23445D;gradientColor=none;strokeColor=none;fontColor=#FFFFFF;fontStyle=1;fontFamily=Tahoma;fontSize=14" parent="1" vertex="1">
          <mxGeometry x="1940" y="524.5" width="190" height="40" as="geometry" />
        </mxCell>
        <mxCell id="rWoH44fEGsMXWXKyqr3U-176" value="Off Campus" style="rounded=1;fillColor=#23445D;gradientColor=none;strokeColor=none;fontColor=#FFFFFF;fontStyle=1;fontFamily=Tahoma;fontSize=14" parent="1" vertex="1">
          <mxGeometry x="1940" y="574.5" width="190" height="40" as="geometry" />
        </mxCell>
        <mxCell id="rWoH44fEGsMXWXKyqr3U-177" value="Bedroom" style="rounded=1;fillColor=#23445D;gradientColor=none;strokeColor=none;fontColor=#FFFFFF;fontStyle=1;fontFamily=Tahoma;fontSize=14" parent="1" vertex="1">
          <mxGeometry x="1940" y="624.5" width="190" height="40" as="geometry" />
        </mxCell>
        <mxCell id="rWoH44fEGsMXWXKyqr3U-178" value="Bathroom" style="rounded=1;fillColor=#23445D;gradientColor=none;strokeColor=none;fontColor=#FFFFFF;fontStyle=1;fontFamily=Tahoma;fontSize=14" parent="1" vertex="1">
          <mxGeometry x="1940" y="674.5" width="190" height="40" as="geometry" />
        </mxCell>
        <mxCell id="rWoH44fEGsMXWXKyqr3U-179" value="Roommates" style="rounded=1;fillColor=#23445D;gradientColor=none;strokeColor=none;fontColor=#FFFFFF;fontStyle=1;fontFamily=Tahoma;fontSize=14" parent="1" vertex="1">
          <mxGeometry x="1940" y="724.5" width="190" height="40" as="geometry" />
        </mxCell>
        <mxCell id="rWoH44fEGsMXWXKyqr3U-180" value="Price Range" style="rounded=1;fillColor=#23445D;gradientColor=none;strokeColor=none;fontColor=#FFFFFF;fontStyle=1;fontFamily=Tahoma;fontSize=14" parent="1" vertex="1">
          <mxGeometry x="1940" y="774.5" width="190" height="40" as="geometry" />
        </mxCell>
        <mxCell id="rWoH44fEGsMXWXKyqr3U-181" value="Ratings" style="rounded=1;fillColor=#23445D;gradientColor=none;strokeColor=none;fontColor=#FFFFFF;fontStyle=1;fontFamily=Tahoma;fontSize=14" parent="1" vertex="1">
          <mxGeometry x="1940" y="824.5" width="190" height="40" as="geometry" />
        </mxCell>
        <mxCell id="rWoH44fEGsMXWXKyqr3U-182" value="Location" style="rounded=1;fillColor=#23445D;gradientColor=none;strokeColor=none;fontColor=#FFFFFF;fontStyle=1;fontFamily=Tahoma;fontSize=14" parent="1" vertex="1">
          <mxGeometry x="1940" y="874.5" width="190" height="40" as="geometry" />
        </mxCell>
        <mxCell id="rWoH44fEGsMXWXKyqr3U-183" value="Safety" style="rounded=1;fillColor=#23445D;gradientColor=none;strokeColor=none;fontColor=#FFFFFF;fontStyle=1;fontFamily=Tahoma;fontSize=14" parent="1" vertex="1">
          <mxGeometry x="1940" y="924.5" width="190" height="40" as="geometry" />
        </mxCell>
        <mxCell id="rWoH44fEGsMXWXKyqr3U-188" value="" style="edgeStyle=orthogonalEdgeStyle;rounded=0;orthogonalLoop=1;jettySize=auto;html=1;" parent="1" source="rWoH44fEGsMXWXKyqr3U-185" target="rWoH44fEGsMXWXKyqr3U-186" edge="1">
          <mxGeometry relative="1" as="geometry" />
        </mxCell>
        <mxCell id="rWoH44fEGsMXWXKyqr3U-185" value="Search" style="rounded=1;fillColor=#23445D;gradientColor=none;strokeColor=none;fontColor=#FFFFFF;fontStyle=1;fontFamily=Tahoma;fontSize=14" parent="1" vertex="1">
          <mxGeometry x="1860" y="300" width="190" height="80" as="geometry" />
        </mxCell>
        <mxCell id="gYmUgzwrYWTiWLQqNIOj-163" style="edgeStyle=orthogonalEdgeStyle;rounded=0;orthogonalLoop=1;jettySize=auto;html=1;exitX=0.25;exitY=1;exitDx=0;exitDy=0;entryX=0;entryY=0.5;entryDx=0;entryDy=0;" parent="1" source="rWoH44fEGsMXWXKyqr3U-186" target="rWoH44fEGsMXWXKyqr3U-175" edge="1">
          <mxGeometry relative="1" as="geometry" />
        </mxCell>
        <mxCell id="gYmUgzwrYWTiWLQqNIOj-164" style="edgeStyle=orthogonalEdgeStyle;rounded=0;orthogonalLoop=1;jettySize=auto;html=1;exitX=0.25;exitY=1;exitDx=0;exitDy=0;entryX=0;entryY=0.5;entryDx=0;entryDy=0;" parent="1" source="rWoH44fEGsMXWXKyqr3U-186" target="rWoH44fEGsMXWXKyqr3U-176" edge="1">
          <mxGeometry relative="1" as="geometry" />
        </mxCell>
        <mxCell id="gYmUgzwrYWTiWLQqNIOj-165" style="edgeStyle=orthogonalEdgeStyle;rounded=0;orthogonalLoop=1;jettySize=auto;html=1;exitX=0.25;exitY=1;exitDx=0;exitDy=0;entryX=0;entryY=0.5;entryDx=0;entryDy=0;" parent="1" source="rWoH44fEGsMXWXKyqr3U-186" target="rWoH44fEGsMXWXKyqr3U-177" edge="1">
          <mxGeometry relative="1" as="geometry" />
        </mxCell>
        <mxCell id="gYmUgzwrYWTiWLQqNIOj-166" style="edgeStyle=orthogonalEdgeStyle;rounded=0;orthogonalLoop=1;jettySize=auto;html=1;exitX=0.25;exitY=1;exitDx=0;exitDy=0;entryX=0;entryY=0.5;entryDx=0;entryDy=0;" parent="1" source="rWoH44fEGsMXWXKyqr3U-186" target="rWoH44fEGsMXWXKyqr3U-178" edge="1">
          <mxGeometry relative="1" as="geometry" />
        </mxCell>
        <mxCell id="gYmUgzwrYWTiWLQqNIOj-167" style="edgeStyle=orthogonalEdgeStyle;rounded=0;orthogonalLoop=1;jettySize=auto;html=1;exitX=0.25;exitY=1;exitDx=0;exitDy=0;entryX=0;entryY=0.5;entryDx=0;entryDy=0;" parent="1" source="rWoH44fEGsMXWXKyqr3U-186" target="rWoH44fEGsMXWXKyqr3U-179" edge="1">
          <mxGeometry relative="1" as="geometry" />
        </mxCell>
        <mxCell id="gYmUgzwrYWTiWLQqNIOj-168" style="edgeStyle=orthogonalEdgeStyle;rounded=0;orthogonalLoop=1;jettySize=auto;html=1;exitX=0.25;exitY=1;exitDx=0;exitDy=0;entryX=0;entryY=0.5;entryDx=0;entryDy=0;" parent="1" source="rWoH44fEGsMXWXKyqr3U-186" target="rWoH44fEGsMXWXKyqr3U-180" edge="1">
          <mxGeometry relative="1" as="geometry" />
        </mxCell>
        <mxCell id="gYmUgzwrYWTiWLQqNIOj-170" style="edgeStyle=orthogonalEdgeStyle;rounded=0;orthogonalLoop=1;jettySize=auto;html=1;exitX=0.25;exitY=1;exitDx=0;exitDy=0;entryX=0;entryY=0.5;entryDx=0;entryDy=0;" parent="1" source="rWoH44fEGsMXWXKyqr3U-186" target="rWoH44fEGsMXWXKyqr3U-181" edge="1">
          <mxGeometry relative="1" as="geometry" />
        </mxCell>
        <mxCell id="gYmUgzwrYWTiWLQqNIOj-171" style="edgeStyle=orthogonalEdgeStyle;rounded=0;orthogonalLoop=1;jettySize=auto;html=1;exitX=0.25;exitY=1;exitDx=0;exitDy=0;entryX=0;entryY=0.5;entryDx=0;entryDy=0;" parent="1" source="rWoH44fEGsMXWXKyqr3U-186" target="rWoH44fEGsMXWXKyqr3U-182" edge="1">
          <mxGeometry relative="1" as="geometry" />
        </mxCell>
        <mxCell id="gYmUgzwrYWTiWLQqNIOj-172" style="edgeStyle=orthogonalEdgeStyle;rounded=0;orthogonalLoop=1;jettySize=auto;html=1;exitX=0.25;exitY=1;exitDx=0;exitDy=0;entryX=0;entryY=0.5;entryDx=0;entryDy=0;" parent="1" source="rWoH44fEGsMXWXKyqr3U-186" target="rWoH44fEGsMXWXKyqr3U-183" edge="1">
          <mxGeometry relative="1" as="geometry" />
        </mxCell>
        <mxCell id="rWoH44fEGsMXWXKyqr3U-186" value="Filter" style="rounded=1;fillColor=#23445D;gradientColor=none;strokeColor=none;fontColor=#FFFFFF;fontStyle=1;fontFamily=Tahoma;fontSize=14" parent="1" vertex="1">
          <mxGeometry x="1859.9999999999998" y="404.5" width="190" height="80" as="geometry" />
        </mxCell>
        <mxCell id="rWoH44fEGsMXWXKyqr3U-203" value="" style="html=1;verticalLabelPosition=bottom;align=center;labelBackgroundColor=#ffffff;verticalAlign=top;strokeWidth=2;strokeColor=#0080F0;shadow=0;dashed=0;shape=mxgraph.ios7.icons.looking_glass;" parent="1" vertex="1">
          <mxGeometry x="2000" y="325" width="30" height="30" as="geometry" />
        </mxCell>
        <mxCell id="rWoH44fEGsMXWXKyqr3U-204" value="" style="html=1;verticalLabelPosition=bottom;align=center;labelBackgroundColor=#ffffff;verticalAlign=top;strokeWidth=2;strokeColor=#0080F0;shadow=0;dashed=0;shape=mxgraph.ios7.icons.home;" parent="1" vertex="1">
          <mxGeometry x="1610" y="177.25" width="24" height="25.5" as="geometry" />
        </mxCell>
        <mxCell id="rWoH44fEGsMXWXKyqr3U-205" value="" style="sketch=0;outlineConnect=0;fontColor=#232F3E;gradientColor=none;fillColor=#E7157B;strokeColor=none;dashed=0;verticalLabelPosition=bottom;verticalAlign=top;align=center;html=1;fontSize=12;fontStyle=0;aspect=fixed;pointerEvents=1;shape=mxgraph.aws4.organizations_account;" parent="1" vertex="1">
          <mxGeometry x="1758.74" y="320" width="37.95" height="40" as="geometry" />
        </mxCell>
        <mxCell id="rWoH44fEGsMXWXKyqr3U-206" value="" style="html=1;verticalLabelPosition=bottom;align=center;labelBackgroundColor=#ffffff;verticalAlign=top;strokeWidth=2;strokeColor=#0080F0;shadow=0;dashed=0;shape=mxgraph.ios7.icons.shopping_cart;" parent="1" vertex="1">
          <mxGeometry x="1520" y="327.25" width="30" height="25.5" as="geometry" />
        </mxCell>
        <mxCell id="rWoH44fEGsMXWXKyqr3U-207" value="" style="shape=mxgraph.signs.travel.currency_exchange;html=1;pointerEvents=1;fillColor=#000000;strokeColor=none;verticalLabelPosition=bottom;verticalAlign=top;align=center;" parent="1" vertex="1">
          <mxGeometry x="1210" y="312" width="61" height="53" as="geometry" />
        </mxCell>
        <mxCell id="rWoH44fEGsMXWXKyqr3U-221" style="edgeStyle=orthogonalEdgeStyle;rounded=0;orthogonalLoop=1;jettySize=auto;html=1;exitX=0;exitY=0.5;exitDx=0;exitDy=0;entryX=0;entryY=0.5;entryDx=0;entryDy=0;" parent="1" source="rWoH44fEGsMXWXKyqr3U-208" target="rWoH44fEGsMXWXKyqr3U-217" edge="1">
          <mxGeometry relative="1" as="geometry" />
        </mxCell>
        <mxCell id="rWoH44fEGsMXWXKyqr3U-222" style="edgeStyle=orthogonalEdgeStyle;rounded=0;orthogonalLoop=1;jettySize=auto;html=1;exitX=0;exitY=0.5;exitDx=0;exitDy=0;entryX=0;entryY=0.5;entryDx=0;entryDy=0;" parent="1" source="rWoH44fEGsMXWXKyqr3U-208" target="rWoH44fEGsMXWXKyqr3U-218" edge="1">
          <mxGeometry relative="1" as="geometry" />
        </mxCell>
        <mxCell id="rWoH44fEGsMXWXKyqr3U-223" style="edgeStyle=orthogonalEdgeStyle;rounded=0;orthogonalLoop=1;jettySize=auto;html=1;exitX=0;exitY=0.5;exitDx=0;exitDy=0;entryX=0;entryY=0.5;entryDx=0;entryDy=0;" parent="1" source="rWoH44fEGsMXWXKyqr3U-208" target="rWoH44fEGsMXWXKyqr3U-219" edge="1">
          <mxGeometry relative="1" as="geometry" />
        </mxCell>
        <mxCell id="rWoH44fEGsMXWXKyqr3U-208" value="Saved" style="rounded=1;fillColor=#23445D;gradientColor=none;strokeColor=none;fontColor=#FFFFFF;fontStyle=1;fontFamily=Tahoma;fontSize=14" parent="1" vertex="1">
          <mxGeometry x="2400" y="300" width="190" height="80" as="geometry" />
        </mxCell>
        <mxCell id="rWoH44fEGsMXWXKyqr3U-217" value="Sort" style="rounded=1;fillColor=#23445D;gradientColor=none;strokeColor=none;fontColor=#FFFFFF;fontStyle=1;fontFamily=Tahoma;fontSize=14" parent="1" vertex="1">
          <mxGeometry x="2400" y="414.5" width="190" height="80" as="geometry" />
        </mxCell>
        <mxCell id="rWoH44fEGsMXWXKyqr3U-218" value="Add" style="rounded=1;fillColor=#23445D;gradientColor=none;strokeColor=none;fontColor=#FFFFFF;fontStyle=1;fontFamily=Tahoma;fontSize=14" parent="1" vertex="1">
          <mxGeometry x="2400" y="514.5" width="190" height="80" as="geometry" />
        </mxCell>
        <mxCell id="rWoH44fEGsMXWXKyqr3U-219" value="Remove" style="rounded=1;fillColor=#23445D;gradientColor=none;strokeColor=none;fontColor=#FFFFFF;fontStyle=1;fontFamily=Tahoma;fontSize=14" parent="1" vertex="1">
          <mxGeometry x="2400" y="614.5" width="190" height="80" as="geometry" />
        </mxCell>
        <mxCell id="rWoH44fEGsMXWXKyqr3U-231" style="edgeStyle=orthogonalEdgeStyle;rounded=0;orthogonalLoop=1;jettySize=auto;html=1;exitX=0;exitY=0.5;exitDx=0;exitDy=0;entryX=0;entryY=0.5;entryDx=0;entryDy=0;" parent="1" source="rWoH44fEGsMXWXKyqr3U-227" target="rWoH44fEGsMXWXKyqr3U-228" edge="1">
          <mxGeometry relative="1" as="geometry" />
        </mxCell>
        <mxCell id="rWoH44fEGsMXWXKyqr3U-232" style="edgeStyle=orthogonalEdgeStyle;rounded=0;orthogonalLoop=1;jettySize=auto;html=1;exitX=0;exitY=0.5;exitDx=0;exitDy=0;entryX=0;entryY=0.5;entryDx=0;entryDy=0;" parent="1" source="rWoH44fEGsMXWXKyqr3U-227" target="rWoH44fEGsMXWXKyqr3U-229" edge="1">
          <mxGeometry relative="1" as="geometry" />
        </mxCell>
        <mxCell id="rWoH44fEGsMXWXKyqr3U-233" style="edgeStyle=orthogonalEdgeStyle;rounded=0;orthogonalLoop=1;jettySize=auto;html=1;exitX=0;exitY=0.5;exitDx=0;exitDy=0;entryX=0;entryY=0.5;entryDx=0;entryDy=0;" parent="1" source="rWoH44fEGsMXWXKyqr3U-227" target="rWoH44fEGsMXWXKyqr3U-230" edge="1">
          <mxGeometry relative="1" as="geometry" />
        </mxCell>
        <mxCell id="rWoH44fEGsMXWXKyqr3U-227" value="Help" style="rounded=1;fillColor=#23445D;gradientColor=none;strokeColor=none;fontColor=#FFFFFF;fontStyle=1;fontFamily=Tahoma;fontSize=14" parent="1" vertex="1">
          <mxGeometry x="2670" y="300" width="190" height="80" as="geometry" />
        </mxCell>
        <mxCell id="rWoH44fEGsMXWXKyqr3U-228" value="Contact Us" style="rounded=1;fillColor=#23445D;gradientColor=none;strokeColor=none;fontColor=#FFFFFF;fontStyle=1;fontFamily=Tahoma;fontSize=14" parent="1" vertex="1">
          <mxGeometry x="2670" y="414.5" width="190" height="80" as="geometry" />
        </mxCell>
        <mxCell id="rWoH44fEGsMXWXKyqr3U-241" style="edgeStyle=orthogonalEdgeStyle;rounded=0;orthogonalLoop=1;jettySize=auto;html=1;exitX=1;exitY=0.5;exitDx=0;exitDy=0;entryX=0;entryY=0.5;entryDx=0;entryDy=0;" parent="1" source="rWoH44fEGsMXWXKyqr3U-229" target="rWoH44fEGsMXWXKyqr3U-238" edge="1">
          <mxGeometry relative="1" as="geometry" />
        </mxCell>
        <mxCell id="rWoH44fEGsMXWXKyqr3U-242" style="edgeStyle=orthogonalEdgeStyle;rounded=0;orthogonalLoop=1;jettySize=auto;html=1;exitX=1;exitY=0.5;exitDx=0;exitDy=0;entryX=0;entryY=0.5;entryDx=0;entryDy=0;" parent="1" source="rWoH44fEGsMXWXKyqr3U-229" target="rWoH44fEGsMXWXKyqr3U-239" edge="1">
          <mxGeometry relative="1" as="geometry" />
        </mxCell>
        <mxCell id="rWoH44fEGsMXWXKyqr3U-243" style="edgeStyle=orthogonalEdgeStyle;rounded=0;orthogonalLoop=1;jettySize=auto;html=1;exitX=1;exitY=0.5;exitDx=0;exitDy=0;entryX=0;entryY=0.5;entryDx=0;entryDy=0;" parent="1" source="rWoH44fEGsMXWXKyqr3U-229" target="rWoH44fEGsMXWXKyqr3U-240" edge="1">
          <mxGeometry relative="1" as="geometry" />
        </mxCell>
        <mxCell id="rWoH44fEGsMXWXKyqr3U-245" style="edgeStyle=orthogonalEdgeStyle;rounded=0;orthogonalLoop=1;jettySize=auto;html=1;exitX=1;exitY=0.5;exitDx=0;exitDy=0;" parent="1" source="rWoH44fEGsMXWXKyqr3U-229" target="rWoH44fEGsMXWXKyqr3U-244" edge="1">
          <mxGeometry relative="1" as="geometry" />
        </mxCell>
        <mxCell id="rWoH44fEGsMXWXKyqr3U-229" value="FAQ" style="rounded=1;fillColor=#23445D;gradientColor=none;strokeColor=none;fontColor=#FFFFFF;fontStyle=1;fontFamily=Tahoma;fontSize=14" parent="1" vertex="1">
          <mxGeometry x="2670" y="514.5" width="190" height="80" as="geometry" />
        </mxCell>
        <mxCell id="rWoH44fEGsMXWXKyqr3U-230" value="Legal" style="rounded=1;fillColor=#23445D;gradientColor=none;strokeColor=none;fontColor=#FFFFFF;fontStyle=1;fontFamily=Tahoma;fontSize=14" parent="1" vertex="1">
          <mxGeometry x="2670" y="614.5" width="190" height="80" as="geometry" />
        </mxCell>
        <mxCell id="rWoH44fEGsMXWXKyqr3U-238" value="Loans" style="rounded=1;fillColor=#23445D;gradientColor=none;strokeColor=none;fontColor=#FFFFFF;fontStyle=1;fontFamily=Tahoma;fontSize=14" parent="1" vertex="1">
          <mxGeometry x="2920" y="454.5" width="190" height="35.5" as="geometry" />
        </mxCell>
        <mxCell id="rWoH44fEGsMXWXKyqr3U-239" value="Credit Score" style="rounded=1;fillColor=#23445D;gradientColor=none;strokeColor=none;fontColor=#FFFFFF;fontStyle=1;fontFamily=Tahoma;fontSize=14" parent="1" vertex="1">
          <mxGeometry x="2920" y="500" width="190" height="35.5" as="geometry" />
        </mxCell>
        <mxCell id="rWoH44fEGsMXWXKyqr3U-240" value="Rent vs. Buy" style="rounded=1;fillColor=#23445D;gradientColor=none;strokeColor=none;fontColor=#FFFFFF;fontStyle=1;fontFamily=Tahoma;fontSize=14" parent="1" vertex="1">
          <mxGeometry x="2920" y="546.75" width="190" height="35.5" as="geometry" />
        </mxCell>
        <mxCell id="rWoH44fEGsMXWXKyqr3U-244" value="Newsletter" style="rounded=1;fillColor=#23445D;gradientColor=none;strokeColor=none;fontColor=#FFFFFF;fontStyle=1;fontFamily=Tahoma;fontSize=14" parent="1" vertex="1">
          <mxGeometry x="2920" y="594.5" width="190" height="35.5" as="geometry" />
        </mxCell>
        <mxCell id="rWoH44fEGsMXWXKyqr3U-246" value="Edit &#xa;Account Info" style="rounded=1;fillColor=#23445D;gradientColor=none;strokeColor=none;fontColor=#FFFFFF;fontStyle=1;fontFamily=Tahoma;fontSize=14" parent="1" vertex="1">
          <mxGeometry x="1615" y="660" width="200" height="80" as="geometry" />
        </mxCell>
        <mxCell id="gYmUgzwrYWTiWLQqNIOj-124" value="USER FLOW: Account setup and browsing properties" style="text;html=1;align=center;verticalAlign=middle;resizable=1;points=[];autosize=1;strokeColor=none;fillColor=none;fontSize=20;" parent="1" vertex="1">
          <mxGeometry x="1340" y="90" width="500" height="40" as="geometry" />
        </mxCell>
        <mxCell id="gYmUgzwrYWTiWLQqNIOj-155" style="edgeStyle=orthogonalEdgeStyle;rounded=0;orthogonalLoop=1;jettySize=auto;html=1;exitX=0.5;exitY=1;exitDx=0;exitDy=0;entryX=0.25;entryY=0;entryDx=0;entryDy=0;" parent="1" source="gYmUgzwrYWTiWLQqNIOj-127" target="rWoH44fEGsMXWXKyqr3U-246" edge="1">
          <mxGeometry relative="1" as="geometry" />
        </mxCell>
        <mxCell id="gYmUgzwrYWTiWLQqNIOj-127" value="Log In" style="rounded=1;fillColor=#23445D;gradientColor=none;strokeColor=none;fontColor=#FFFFFF;fontStyle=1;fontFamily=Tahoma;fontSize=14" parent="1" vertex="1">
          <mxGeometry x="1620" y="424.5" width="90" height="80" as="geometry" />
        </mxCell>
        <mxCell id="gYmUgzwrYWTiWLQqNIOj-157" style="edgeStyle=orthogonalEdgeStyle;rounded=0;orthogonalLoop=1;jettySize=auto;html=1;exitX=0.5;exitY=1;exitDx=0;exitDy=0;" parent="1" source="gYmUgzwrYWTiWLQqNIOj-129" target="gYmUgzwrYWTiWLQqNIOj-156" edge="1">
          <mxGeometry relative="1" as="geometry" />
        </mxCell>
        <mxCell id="gYmUgzwrYWTiWLQqNIOj-129" value="Create &#xa;Account" style="rounded=1;fillColor=#23445D;gradientColor=none;strokeColor=none;fontColor=#FFFFFF;fontStyle=1;fontFamily=Tahoma;fontSize=14" parent="1" vertex="1">
          <mxGeometry x="1717.38" y="424" width="90" height="80" as="geometry" />
        </mxCell>
        <mxCell id="rWoH44fEGsMXWXKyqr3U-213" value="" style="curved=1;endArrow=classic;html=1;rounded=0;strokeColor=#007FFF;strokeWidth=2;entryX=0.25;entryY=0;entryDx=0;entryDy=0;" parent="1" source="rWoH44fEGsMXWXKyqr3U-124" target="rWoH44fEGsMXWXKyqr3U-186" edge="1">
          <mxGeometry width="50" height="50" relative="1" as="geometry">
            <mxPoint x="1630" y="520" as="sourcePoint" />
            <mxPoint x="1680" y="470" as="targetPoint" />
            <Array as="points">
              <mxPoint x="1860" y="220" />
            </Array>
          </mxGeometry>
        </mxCell>
        <mxCell id="rWoH44fEGsMXWXKyqr3U-215" value="" style="curved=1;endArrow=classic;html=1;rounded=0;strokeColor=#007FFF;entryX=0.5;entryY=1;entryDx=0;entryDy=0;strokeWidth=2;" parent="1" target="rWoH44fEGsMXWXKyqr3U-186" edge="1">
          <mxGeometry width="50" height="50" relative="1" as="geometry">
            <mxPoint x="1199.9990476190478" y="379.5" as="sourcePoint" />
            <mxPoint x="1847.38" y="464" as="targetPoint" />
            <Array as="points">
              <mxPoint x="1950" y="620" />
            </Array>
          </mxGeometry>
        </mxCell>
        <mxCell id="gYmUgzwrYWTiWLQqNIOj-152" style="edgeStyle=orthogonalEdgeStyle;rounded=0;orthogonalLoop=1;jettySize=auto;html=1;exitX=1;exitY=0.75;exitDx=0;exitDy=0;entryX=1;entryY=0.5;entryDx=0;entryDy=0;strokeWidth=2;strokeColor=#ff0000;" parent="1" source="gYmUgzwrYWTiWLQqNIOj-125" target="gYmUgzwrYWTiWLQqNIOj-145" edge="1">
          <mxGeometry relative="1" as="geometry">
            <mxPoint x="1677" y="200" as="sourcePoint" />
            <mxPoint x="1830" y="349" as="targetPoint" />
          </mxGeometry>
        </mxCell>
        <mxCell id="uPcwpQi_YDaR7jfEbehS-131" value="&lt;font style=&quot;font-size: 15px;&quot; color=&quot;#ff0000&quot;&gt;2&lt;/font&gt;" style="edgeLabel;html=1;align=center;verticalAlign=middle;resizable=0;points=[];fontSize=15;" vertex="1" connectable="0" parent="gYmUgzwrYWTiWLQqNIOj-152">
          <mxGeometry x="-0.4965" y="1" relative="1" as="geometry">
            <mxPoint y="1" as="offset" />
          </mxGeometry>
        </mxCell>
        <mxCell id="gYmUgzwrYWTiWLQqNIOj-158" style="edgeStyle=orthogonalEdgeStyle;rounded=0;orthogonalLoop=1;jettySize=auto;html=1;exitX=0.379;exitY=1.006;exitDx=0;exitDy=0;entryX=0.678;entryY=0.031;entryDx=0;entryDy=0;entryPerimeter=0;exitPerimeter=0;" parent="1" source="gYmUgzwrYWTiWLQqNIOj-156" target="rWoH44fEGsMXWXKyqr3U-246" edge="1">
          <mxGeometry relative="1" as="geometry" />
        </mxCell>
        <mxCell id="gYmUgzwrYWTiWLQqNIOj-156" value="Account&#xa;Setup" style="rounded=1;fillColor=#23445D;gradientColor=none;strokeColor=none;fontColor=#FFFFFF;fontStyle=1;fontFamily=Tahoma;fontSize=14" parent="1" vertex="1">
          <mxGeometry x="1717.38" y="535.5" width="90" height="80" as="geometry" />
        </mxCell>
        <mxCell id="gYmUgzwrYWTiWLQqNIOj-179" style="edgeStyle=orthogonalEdgeStyle;rounded=0;orthogonalLoop=1;jettySize=auto;html=1;exitX=0;exitY=0.5;exitDx=0;exitDy=0;entryX=1;entryY=0.5;entryDx=0;entryDy=0;" parent="1" source="gYmUgzwrYWTiWLQqNIOj-173" target="rWoH44fEGsMXWXKyqr3U-185" edge="1">
          <mxGeometry relative="1" as="geometry" />
        </mxCell>
        <mxCell id="gYmUgzwrYWTiWLQqNIOj-173" value="Browse Listings" style="rounded=1;fillColor=#23445D;gradientColor=none;strokeColor=none;fontColor=#FFFFFF;fontStyle=1;fontFamily=Tahoma;fontSize=14" parent="1" vertex="1">
          <mxGeometry x="2140" y="300" width="190" height="80" as="geometry" />
        </mxCell>
        <mxCell id="rWoH44fEGsMXWXKyqr3U-220" value="" style="curved=1;endArrow=classic;html=1;rounded=0;strokeColor=#007FFF;strokeWidth=2;" parent="1" source="rWoH44fEGsMXWXKyqr3U-218" target="rWoH44fEGsMXWXKyqr3U-185" edge="1">
          <mxGeometry width="50" height="50" relative="1" as="geometry">
            <mxPoint x="1290" y="379" as="sourcePoint" />
            <mxPoint x="1880" y="472" as="targetPoint" />
            <Array as="points">
              <mxPoint x="2270" y="430" />
            </Array>
          </mxGeometry>
        </mxCell>
        <mxCell id="uPcwpQi_YDaR7jfEbehS-125" style="edgeStyle=orthogonalEdgeStyle;rounded=0;orthogonalLoop=1;jettySize=auto;html=1;exitX=0;exitY=0.5;exitDx=0;exitDy=0;entryX=0;entryY=0.5;entryDx=0;entryDy=0;strokeWidth=2;strokeColor=#ff0000;" edge="1" parent="1" source="gYmUgzwrYWTiWLQqNIOj-145" target="123">
          <mxGeometry relative="1" as="geometry">
            <mxPoint x="1830" y="374" as="sourcePoint" />
            <mxPoint x="1830" y="475" as="targetPoint" />
            <Array as="points">
              <mxPoint x="1580" y="465" />
              <mxPoint x="1580" y="260" />
              <mxPoint x="1400" y="260" />
              <mxPoint x="1400" y="190" />
            </Array>
          </mxGeometry>
        </mxCell>
        <mxCell id="uPcwpQi_YDaR7jfEbehS-132" value="&lt;font style=&quot;font-size: 15px;&quot; color=&quot;#ff0000&quot;&gt;3&lt;/font&gt;" style="edgeLabel;html=1;align=center;verticalAlign=middle;resizable=0;points=[];" vertex="1" connectable="0" parent="uPcwpQi_YDaR7jfEbehS-125">
          <mxGeometry x="-0.5956" relative="1" as="geometry">
            <mxPoint x="10" y="79" as="offset" />
          </mxGeometry>
        </mxCell>
        <mxCell id="uPcwpQi_YDaR7jfEbehS-128" style="edgeStyle=orthogonalEdgeStyle;rounded=0;orthogonalLoop=1;jettySize=auto;html=1;exitX=-0.001;exitY=0.87;exitDx=0;exitDy=0;entryX=0;entryY=0.75;entryDx=0;entryDy=0;strokeColor=#FF0000;strokeWidth=2;exitPerimeter=0;" edge="1" parent="1" source="uPcwpQi_YDaR7jfEbehS-126" target="123">
          <mxGeometry relative="1" as="geometry">
            <Array as="points">
              <mxPoint x="1340" y="737" />
              <mxPoint x="1340" y="220" />
              <mxPoint x="1430" y="220" />
              <mxPoint x="1430" y="215" />
            </Array>
          </mxGeometry>
        </mxCell>
        <mxCell id="uPcwpQi_YDaR7jfEbehS-134" value="5" style="edgeLabel;html=1;align=center;verticalAlign=middle;resizable=0;points=[];fontSize=14;fontColor=#FF0000;" vertex="1" connectable="0" parent="uPcwpQi_YDaR7jfEbehS-128">
          <mxGeometry x="-0.4637" y="2" relative="1" as="geometry">
            <mxPoint x="224" y="-9" as="offset" />
          </mxGeometry>
        </mxCell>
      </root>
    </mxGraphModel>
  </diagram>
</mxfile>
